#define monster_width 64
#define monster_height 64
static unsigned char monster_bits[] = {
   0x00, 0x00, 0x00, 0x00, 0x00, 0x00, 0x00, 0x00, 0x00, 0x00, 0x00, 0x00,
   0x00, 0x00, 0x00, 0x00, 0x00, 0x00, 0x00, 0x00, 0x00, 0x00, 0x00, 0x18,
   0x18, 0x00, 0x80, 0x1f, 0x00, 0x00, 0x00, 0x1c, 0x30, 0x00, 0x40, 0x10,
   0x00, 0x00, 0x00, 0x1e, 0x60, 0x00, 0x40, 0x10, 0x30, 0x0f, 0x80, 0x1f,
   0xe0, 0x1f, 0xc0, 0xf0, 0x98, 0x08, 0xe0, 0x0f, 0xe0, 0x35, 0x80, 0x3f,
   0x84, 0xf8, 0xf7, 0x0f, 0xa0, 0x63, 0xe0, 0xff, 0x83, 0x18, 0xd4, 0x0b,
   0xe0, 0xcf, 0x30, 0x1c, 0x81, 0x18, 0xfc, 0x0f, 0x00, 0xbe, 0x3d, 0x9c,
   0x89, 0x1c, 0xfc, 0x03, 0x00, 0xbc, 0x2f, 0xe4, 0x8a, 0x1c, 0xfe, 0x01,
   0x00, 0x78, 0x29, 0xf4, 0x4f, 0x1c, 0xfd, 0x07, 0x00, 0xe8, 0x25, 0xfc,
   0x7f, 0xfe, 0x7d, 0x05, 0x00, 0xc8, 0x25, 0xe6, 0xfc, 0xff, 0xff, 0x05,
   0x00, 0xc8, 0xff, 0xe7, 0x98, 0x13, 0xf2, 0x04, 0x00, 0xe8, 0xff, 0xff,
   0xff, 0xff, 0xdf, 0x04, 0x00, 0xd8, 0xff, 0xff, 0xff, 0xff, 0x7f, 0x04,
   0x40, 0xf8, 0x87, 0x0f, 0x40, 0xfc, 0x78, 0x04, 0xc0, 0xef, 0x06, 0x18,
   0x30, 0x80, 0xf9, 0x07, 0x40, 0xe0, 0x06, 0xf0, 0x1f, 0x00, 0x1f, 0x02,
   0x40, 0xfc, 0xf0, 0x0f, 0x00, 0x00, 0x18, 0x00, 0x80, 0xc0, 0x19, 0x08,
   0x80, 0xff, 0x19, 0x00, 0x80, 0xff, 0x0c, 0x08, 0x00, 0x01, 0x19, 0x00,
   0x00, 0xc0, 0x84, 0x0b, 0x00, 0x03, 0x19, 0x00, 0x00, 0xc0, 0xe2, 0x0b,
   0x00, 0x7e, 0x19, 0x00, 0x00, 0xc0, 0xc2, 0x0f, 0x00, 0x3e, 0x19, 0x00,
   0x00, 0xc0, 0x82, 0x03, 0x00, 0x3c, 0x19, 0x00, 0x00, 0xc0, 0xfe, 0x00,
   0x00, 0xe0, 0x19, 0x00, 0x00, 0xc0, 0x00, 0x00, 0x00, 0x00, 0x18, 0x00,
   0x00, 0xc0, 0x00, 0x80, 0x00, 0x00, 0x18, 0x00, 0x00, 0xc0, 0x00, 0x40,
   0x30, 0x00, 0x18, 0x00, 0x00, 0xc0, 0x00, 0x30, 0x60, 0x00, 0x18, 0x00,
   0x80, 0xff, 0x00, 0x18, 0xc0, 0x00, 0xf8, 0x0f, 0x80, 0xff, 0x00, 0x0c,
   0x80, 0x01, 0xf8, 0x0f, 0x00, 0xc0, 0x00, 0x24, 0x00, 0x03, 0x18, 0x00,
   0x00, 0xc0, 0x00, 0x02, 0x10, 0x02, 0x18, 0x00, 0x00, 0xc0, 0x00, 0x00,
   0x00, 0x00, 0x18, 0x00, 0x00, 0xc0, 0x00, 0x00, 0x00, 0x00, 0x18, 0x00,
   0x00, 0xc0, 0x00, 0x00, 0x00, 0x00, 0x18, 0x00, 0x00, 0xc0, 0x00, 0x00,
   0x00, 0x00, 0x18, 0x00, 0x00, 0xc0, 0x00, 0x00, 0x00, 0x00, 0x18, 0x00,
   0x00, 0xc0, 0x00, 0x00, 0x00, 0x00, 0x18, 0x00, 0x00, 0xc0, 0x00, 0xfe,
   0xff, 0x07, 0x18, 0x00, 0x00, 0xc0, 0x00, 0x62, 0x63, 0x04, 0x18, 0x00,
   0x00, 0xc0, 0x00, 0x62, 0x63, 0x04, 0x18, 0x00, 0x00, 0xc0, 0x00, 0x07,
   0x42, 0x0e, 0x18, 0x00, 0x00, 0xc0, 0x00, 0x00, 0x40, 0x00, 0x18, 0x00,
   0x00, 0xc0, 0x00, 0x00, 0x00, 0x00, 0x18, 0x00, 0x00, 0xc0, 0xff, 0xff,
   0xeb, 0xff, 0x1f, 0x00, 0x00, 0xc0, 0xff, 0xff, 0xff, 0xff, 0x1f, 0x00,
   0x00, 0x00, 0x00, 0xff, 0xff, 0x07, 0x00, 0x00, 0x00, 0x00, 0x00, 0xff,
   0xff, 0x07, 0x00, 0x00, 0x00, 0x00, 0x00, 0xff, 0xff, 0x07, 0x00, 0x00,
   0x00, 0x00, 0x80, 0x0f, 0x00, 0x0e, 0x00, 0x00, 0x00, 0x00, 0x80, 0x07,
   0x00, 0x0e, 0x00, 0x00, 0x00, 0x00, 0x80, 0x07, 0x00, 0x0e, 0x00, 0x00,
   0x00, 0x00, 0x80, 0x07, 0x00, 0x0e, 0x00, 0x00, 0x00, 0x00, 0x80, 0x07,
   0x00, 0x0e, 0x00, 0x00, 0x00, 0x00, 0xff, 0x07, 0x00, 0xfe, 0x0f, 0x00,
   0x00, 0x00, 0xff, 0x07, 0x00, 0xfe, 0x0f, 0x00, 0x00, 0xf0, 0xff, 0x07,
   0x00, 0xfe, 0xff, 0x03, 0xc0, 0xff, 0xff, 0x07, 0x00, 0xfe, 0xff, 0x3f,
   0x01, 0x00, 0x00, 0x00, 0x00, 0x00, 0x00, 0x00 };
